{
  "asset": {
    "version": "2.0",
    "generator": "THREE.GLTFExporter"
  },
  "scenes": [
    {
      "nodes": [
        6
      ],
      "name": "Scene"
    }
  ],
  "scene": 0,
  "nodes": [
    {
      "name": "Line023",
      "mesh": 0
    },
    {
      "name": "Box002",
      "mesh": 1
    },
    {
      "name": "Box003",
      "mesh": 2
    },
    {
      "name": "Box004",
      "mesh": 3
    },
    {
      "name": "Line021",
      "mesh": 4
    },
    {
      "name": "Pyramid001",
      "mesh": 5
    },
    {
      "name": "align.obj",
      "children": [
        0,
        1,
        2,
        3,
        4,
        5
      ]
    }
  ],
  "meshes": [
    {
      "primitives": [
        {
          "mode": 4,
          "attributes": {
            "POSITION": 0,
            "NORMAL": 1,
            "TEXCOORD_0": 2
          },
          "material": 0
        }
      ]
    },
    {
      "primitives": [
        {
          "mode": 4,
          "attributes": {
            "POSITION": 3,
            "NORMAL": 4,
            "TEXCOORD_0": 5
          },
          "material": 1
        }
      ]
    },
    {
      "primitives": [
        {
          "mode": 4,
          "attributes": {
            "POSITION": 6,
            "NORMAL": 7,
            "TEXCOORD_0": 8
          },
          "material": 2
        }
      ]
    },
    {
      "primitives": [
        {
          "mode": 4,
          "attributes": {
            "POSITION": 9,
            "NORMAL": 10,
            "TEXCOORD_0": 11
          },
          "material": 3
        }
      ]
    },
    {
      "primitives": [
        {
          "mode": 4,
          "attributes": {
            "POSITION": 12,
            "NORMAL": 13,
            "TEXCOORD_0": 14
          },
          "material": 4
        }
      ]
    },
    {
      "primitives": [
        {
          "mode": 4,
          "attributes": {
            "POSITION": 15,
            "NORMAL": 16,
            "TEXCOORD_0": 17
          },
          "material": 5
        }
      ]
    }
  ],
  "materials": [
    {
      "pbrMetallicRoughness": {
        "baseColorFactor": [
          0.4470588235294118,
          0.5058823529411764,
          0.596078431372549,
          1
        ],
        "metallicFactor": 0.5,
        "roughnessFactor": 0.5
      }
    },
    {
      "pbrMetallicRoughness": {
        "metallicFactor": 0.5,
        "roughnessFactor": 0.5
      }
    },
    {
      "pbrMetallicRoughness": {
        "metallicFactor": 0.5,
        "roughnessFactor": 0.5
      }
    },
    {
      "pbrMetallicRoughness": {
        "baseColorFactor": [
          0.4588235294117647,
          0.9764705882352941,
          0.5764705882352941,
          1
        ],
        "metallicFactor": 0.5,
        "roughnessFactor": 0.5
      }
    },
    {
      "pbrMetallicRoughness": {
        "metallicFactor": 0.5,
        "roughnessFactor": 0.5
      }
    },
    {
      "pbrMetallicRoughness": {
        "baseColorFactor": [
          0.9882352941176471,
          0.9372549019607843,
          0.3058823529411765,
          1
        ],
        "metallicFactor": 0.5,
        "roughnessFactor": 0.5
      }
    }
  ],
  "accessors": [
    {
      "bufferView": 0,
      "componentType": 5126,
      "count": 1284,
      "max": [
        40.69729995727539,
        0.00570000009611249,
        10.28279972076416
      ],
      "min": [
        -56.731201171875,
        -0.09870000183582306,
        -26.7406005859375
      ],
      "type": "VEC3"
    },
    {
      "bufferView": 1,
      "componentType": 5126,
      "count": 1284,
      "max": [
        0.916700005531311,
        1,
        1
      ],
      "min": [
        -0.9908999800682068,
        -1,
        -1
      ],
      "type": "VEC3"
    },
    {
      "bufferView": 2,
      "componentType": 5126,
      "count": 1284,
      "max": [
        null,
        null
      ],
      "min": [
        null,
        null
      ],
      "type": "VEC2"
    },
    {
      "bufferView": 3,
      "componentType": 5126,
      "count": 36,
      "max": [
        57.580101013183594,
        2.321700096130371,
        -3.7869999408721924
      ],
      "min": [
        53.76020050048828,
        0,
        -7.377900123596191
      ],
      "type": "VEC3"
    },
    {
      "bufferView": 4,
      "componentType": 5126,
      "count": 36,
      "max": [
        0.8281000256538391,
        1,
        0.8281000256538391
      ],
      "min": [
        -0.8281000256538391,
        -1,
        -0.8281000256538391
      ],
      "type": "VEC3"
    },
    {
      "bufferView": 5,
      "componentType": 5126,
      "count": 36,
      "max": [
        1,
        1
      ],
      "min": [
        0,
        0
      ],
      "type": "VEC2"
    },
    {
      "bufferView": 6,
      "componentType": 5126,
      "count": 36,
      "max": [
        57.8672981262207,
        2.2827000617980957,
        -2.079900026321411
      ],
      "min": [
        53.95790100097656,
        0,
        -5.249100208282471
      ],
      "type": "VEC3"
    },
    {
      "bufferView": 7,
      "componentType": 5126,
      "count": 36,
      "max": [
        0.8281000256538391,
        1,
        0.8281000256538391
      ],
      "min": [
        -0.8281000256538391,
        -1,
        -0.8281000256538391
      ],
      "type": "VEC3"
    },
    {
      "bufferView": 8,
      "componentType": 5126,
      "count": 36,
      "max": [
        1,
        1
      ],
      "min": [
        0,
        0
      ],
      "type": "VEC2"
    },
    {
      "bufferView": 9,
      "componentType": 5126,
      "count": 36,
      "max": [
        56.160400390625,
        3.335099935531616,
        31.100400924682617
      ],
      "min": [
        44.32149887084961,
        0,
        12.597999572753906
      ],
      "type": "VEC3"
    },
    {
      "bufferView": 10,
      "componentType": 5126,
      "count": 36,
      "max": [
        0.9939000010490417,
        1,
        0.9939000010490417
      ],
      "min": [
        -0.9939000010490417,
        -1,
        -0.9939000010490417
      ],
      "type": "VEC3"
    },
    {
      "bufferView": 11,
      "componentType": 5126,
      "count": 36,
      "max": [
        1,
        1
      ],
      "min": [
        0,
        0
      ],
      "type": "VEC2"
    },
    {
      "bufferView": 12,
      "componentType": 5126,
      "count": 3708,
      "max": [
        65.1520004272461,
        -0.04600000008940697,
        68.77020263671875
      ],
      "min": [
        -40.135501861572266,
        -0.04699999839067459,
        -9.859100341796875
      ],
      "type": "VEC3"
    },
    {
      "bufferView": 13,
      "componentType": 5126,
      "count": 3708,
      "max": [
        1,
        1,
        1
      ],
      "min": [
        -1,
        -1,
        -1
      ],
      "type": "VEC3"
    },
    {
      "bufferView": 14,
      "componentType": 5126,
      "count": 3708,
      "max": [
        null,
        null
      ],
      "min": [
        null,
        null
      ],
      "type": "VEC2"
    },
    {
      "bufferView": 15,
      "componentType": 5126,
      "count": 24,
      "max": [
        0.7652999758720398,
        1.3008999824523926,
        0.7652999758720398
      ],
      "min": [
        -0.7652999758720398,
        0,
        -0.7652999758720398
      ],
      "type": "VEC3"
    },
    {
      "bufferView": 16,
      "componentType": 5126,
      "count": 24,
      "max": [
        0.8618999719619751,
        0.5070000290870667,
        0.8618999719619751
      ],
      "min": [
        -0.8618999719619751,
        -1,
        -0.8618999719619751
      ],
      "type": "VEC3"
    },
    {
      "bufferView": 17,
      "componentType": 5126,
      "count": 24,
      "max": [
        1,
        1
      ],
      "min": [
        0,
        0
      ],
      "type": "VEC2"
    }
  ],
  "bufferViews": [
    {
      "buffer": 0,
      "byteOffset": 0,
      "byteLength": 15408,
      "target": 34962,
      "byteStride": 12
    },
    {
      "buffer": 0,
      "byteOffset": 15408,
      "byteLength": 15408,
      "target": 34962,
      "byteStride": 12
    },
    {
      "buffer": 0,
      "byteOffset": 30816,
      "byteLength": 10272,
      "target": 34962,
      "byteStride": 8
    },
    {
      "buffer": 0,
      "byteOffset": 41088,
      "byteLength": 432,
      "target": 34962,
      "byteStride": 12
    },
    {
      "buffer": 0,
      "byteOffset": 41520,
      "byteLength": 432,
      "target": 34962,
      "byteStride": 12
    },
    {
      "buffer": 0,
      "byteOffset": 41952,
      "byteLength": 288,
      "target": 34962,
      "byteStride": 8
    },
    {
      "buffer": 0,
      "byteOffset": 42240,
      "byteLength": 432,
      "target": 34962,
      "byteStride": 12
    },
    {
      "buffer": 0,
      "byteOffset": 42672,
      "byteLength": 432,
      "target": 34962,
      "byteStride": 12
    },
    {
      "buffer": 0,
      "byteOffset": 43104,
      "byteLength": 288,
      "target": 34962,
      "byteStride": 8
    },
    {
      "buffer": 0,
      "byteOffset": 43392,
      "byteLength": 432,
      "target": 34962,
      "byteStride": 12
    },
    {
      "buffer": 0,
      "byteOffset": 43824,
      "byteLength": 432,
      "target": 34962,
      "byteStride": 12
    },
    {
      "buffer": 0,
      "byteOffset": 44256,
      "byteLength": 288,
      "target": 34962,
      "byteStride": 8
    },
    {
      "buffer": 0,
      "byteOffset": 44544,
      "byteLength": 44496,
      "target": 34962,
      "byteStride": 12
    },
    {
      "buffer": 0,
      "byteOffset": 89040,
      "byteLength": 44496,
      "target": 34962,
      "byteStride": 12
    },
    {
      "buffer": 0,
      "byteOffset": 133536,
      "byteLength": 29664,
      "target": 34962,
      "byteStride": 8
    },
    {
      "buffer": 0,
      "byteOffset": 163200,
      "byteLength": 288,
      "target": 34962,
      "byteStride": 12
    },
    {
      "buffer": 0,
      "byteOffset": 163488,
      "byteLength": 288,
      "target": 34962,
      "byteStride": 12
    },
    {
      "buffer": 0,
      "byteOffset": 163776,
      "byteLength": 192,
      "target": 34962,
      "byteStride": 8
    }
  ],
  "buffers": [
    {
      "byteLength": 163968,
      "uri": "data:application/octet-stream;base64,"
    }
  ]
}